<svg width="22" height="23" viewBox="0 0 22 23" fill="none" xmlns="http://www.w3.org/2000/svg">
<path d="M7.968 16.1001V15.4881L11.46 12.0681C11.78 11.7561 12.02 11.4841 12.18 11.2521C12.34 11.0121 12.448 10.7881 12.504 10.5801C12.56 10.3721 12.588 10.1761 12.588 9.9921C12.588 9.5041 12.42 9.1201 12.084 8.8401C11.756 8.5601 11.268 8.4201 10.62 8.4201C10.124 8.4201 9.684 8.4961 9.3 8.6481C8.924 8.8001 8.6 9.0361 8.328 9.3561L7.716 8.8281C8.044 8.4441 8.464 8.1481 8.976 7.9401C9.488 7.7321 10.06 7.6281 10.692 7.6281C11.26 7.6281 11.752 7.7201 12.168 7.9041C12.584 8.0801 12.904 8.3401 13.128 8.6841C13.36 9.0281 13.476 9.4321 13.476 9.8961C13.476 10.1681 13.436 10.4361 13.356 10.7001C13.284 10.9641 13.148 11.2441 12.948 11.5401C12.756 11.8281 12.472 12.1561 12.096 12.5241L8.892 15.6681L8.652 15.3321H13.86V16.1001H7.968Z" fill="black"/>
<rect x="0.5" y="1.1001" width="21" height="21" rx="10.5" stroke="black"/>
</svg>
