<svg width="22" height="23" viewBox="0 0 22 23" fill="none" xmlns="http://www.w3.org/2000/svg">
<path d="M10.632 16.1721C10.024 16.1721 9.448 16.0761 8.904 15.8841C8.368 15.6841 7.936 15.4201 7.608 15.0921L8.028 14.4081C8.3 14.6881 8.664 14.9201 9.12 15.1041C9.584 15.2881 10.088 15.3801 10.632 15.3801C11.328 15.3801 11.86 15.2281 12.228 14.9241C12.604 14.6201 12.792 14.2121 12.792 13.7001C12.792 13.1881 12.608 12.7801 12.24 12.4761C11.88 12.1721 11.308 12.0201 10.524 12.0201H9.924V11.3841L12.516 8.1321L12.636 8.4681H7.956V7.7001H13.356V8.3121L10.764 11.5641L10.344 11.2881H10.668C11.676 11.2881 12.428 11.5121 12.924 11.9601C13.428 12.4081 13.68 12.9841 13.68 13.6881C13.68 14.1601 13.568 14.5841 13.344 14.9601C13.12 15.3361 12.78 15.6321 12.324 15.8481C11.876 16.0641 11.312 16.1721 10.632 16.1721Z" fill="black"/>
<rect x="0.5" y="1.1001" width="21" height="21" rx="10.5" stroke="black"/>
</svg>
