<svg width="22" height="28" viewBox="0 0 22 28" fill="none" xmlns="http://www.w3.org/2000/svg">
<rect x="1" y="0.600098" width="21" height="21" rx="10.5" fill="#030000"/>
<path d="M9.16667 13.0667L14.575 7.65833C14.7431 7.49028 14.9569 7.40625 15.2167 7.40625C15.4764 7.40625 15.6903 7.49028 15.8583 7.65833C16.0264 7.82639 16.1104 8.04028 16.1104 8.3C16.1104 8.55972 16.0264 8.77361 15.8583 8.94167L9.80834 14.9917C9.625 15.175 9.41112 15.2667 9.16667 15.2667C8.92223 15.2667 8.70834 15.175 8.525 14.9917L6.14167 12.6083C5.97361 12.4403 5.88959 12.2264 5.88959 11.9667C5.88959 11.7069 5.97361 11.4931 6.14167 11.325C6.30973 11.1569 6.52362 11.0729 6.78334 11.0729C7.04306 11.0729 7.25695 11.1569 7.425 11.325L9.16667 13.0667Z" fill="#FFFBFB"/>
</svg>
