<svg width="121" height="21" viewBox="0 0 121 21" fill="none" xmlns="http://www.w3.org/2000/svg">
<g filter="url(#filter0_d_245507_284)">
<path d="M13.552 1.92H9.63197V12H8.19197V1.92H4.27197V0.639997H13.552V1.92Z" fill="black"/>
<path d="M19.4523 12.08C18.6523 12.08 17.927 11.92 17.2763 11.6C16.6257 11.28 16.0603 10.848 15.5803 10.304C15.111 9.74933 14.7483 9.13066 14.4923 8.448C14.2363 7.75466 14.1083 7.04533 14.1083 6.32C14.1083 5.56266 14.2417 4.84266 14.5083 4.16C14.7857 3.46666 15.1643 2.85333 15.6443 2.32C16.135 1.776 16.7057 1.34933 17.3563 1.04C18.007 0.719997 18.7163 0.559998 19.4843 0.559998C20.2843 0.559998 21.0097 0.725331 21.6603 1.056C22.311 1.38666 22.871 1.82933 23.3403 2.384C23.8097 2.93866 24.1723 3.55733 24.4283 4.24C24.6843 4.92266 24.8123 5.62133 24.8123 6.336C24.8123 7.09333 24.679 7.81866 24.4123 8.512C24.1457 9.19466 23.767 9.808 23.2763 10.352C22.7963 10.8853 22.231 11.3067 21.5803 11.616C20.9297 11.9253 20.2203 12.08 19.4523 12.08ZM15.5643 6.32C15.5643 6.896 15.655 7.456 15.8363 8C16.0283 8.53333 16.295 9.008 16.6363 9.424C16.9777 9.84 17.3883 10.1707 17.8683 10.416C18.3483 10.6613 18.8817 10.784 19.4683 10.784C20.0763 10.784 20.6203 10.656 21.1003 10.4C21.5803 10.144 21.9857 9.80266 22.3163 9.376C22.6577 8.94933 22.9137 8.46933 23.0843 7.936C23.2657 7.40266 23.3563 6.864 23.3563 6.32C23.3563 5.744 23.2603 5.18933 23.0683 4.656C22.887 4.12267 22.6203 3.648 22.2683 3.232C21.927 2.80533 21.5163 2.47466 21.0363 2.24C20.567 1.99466 20.0443 1.872 19.4683 1.872C18.8603 1.872 18.3163 2 17.8363 2.256C17.3563 2.50133 16.9457 2.83733 16.6043 3.264C16.2737 3.69066 16.0177 4.17066 15.8363 4.704C15.655 5.22666 15.5643 5.76533 15.5643 6.32Z" fill="black"/>
<path d="M36.6371 12V3.328L32.8931 10H32.0131L28.2531 3.328V12H26.8131V0.639997H28.3331L32.4451 8.016L36.5731 0.639997H38.0771V12H36.6371Z" fill="black"/>
<path d="M51.5163 3.024C51.3884 2.87466 51.2177 2.73066 51.0043 2.592C50.791 2.45333 50.551 2.33066 50.2843 2.224C50.0177 2.10666 49.7243 2.016 49.4043 1.952C49.095 1.87733 48.7697 1.84 48.4283 1.84C47.5537 1.84 46.9083 2.00533 46.4923 2.336C46.0763 2.66666 45.8683 3.12 45.8683 3.696C45.8683 4.10133 45.975 4.42133 46.1883 4.656C46.4017 4.89067 46.727 5.08266 47.1643 5.232C47.6124 5.38133 48.1777 5.536 48.8603 5.696C49.6497 5.86666 50.3323 6.07466 50.9083 6.32C51.4843 6.56533 51.927 6.896 52.2363 7.312C52.5457 7.71733 52.7003 8.26133 52.7003 8.944C52.7003 9.488 52.5937 9.96266 52.3803 10.368C52.1777 10.7627 51.8897 11.0933 51.5163 11.36C51.143 11.616 50.7057 11.808 50.2043 11.936C49.703 12.0533 49.159 12.112 48.5723 12.112C47.9963 12.112 47.431 12.0533 46.8763 11.936C46.3323 11.808 45.815 11.6267 45.3243 11.392C44.8337 11.1573 44.375 10.864 43.9483 10.512L44.6363 9.296C44.807 9.47733 45.0257 9.65866 45.2923 9.84C45.5697 10.0107 45.879 10.1707 46.2203 10.32C46.5723 10.4693 46.951 10.592 47.3563 10.688C47.7617 10.7733 48.1777 10.816 48.6043 10.816C49.415 10.816 50.0443 10.672 50.4923 10.384C50.9403 10.0853 51.1643 9.65333 51.1643 9.088C51.1643 8.66133 51.0364 8.32 50.7803 8.064C50.535 7.808 50.167 7.59466 49.6763 7.424C49.1857 7.25333 48.5883 7.08266 47.8843 6.912C47.1163 6.72 46.471 6.512 45.9483 6.288C45.4257 6.05333 45.031 5.74933 44.7643 5.376C44.5083 5.00266 44.3803 4.51733 44.3803 3.92C44.3803 3.19466 44.5563 2.58133 44.9083 2.08C45.2603 1.57866 45.7457 1.2 46.3643 0.943997C46.983 0.687997 47.6817 0.559998 48.4604 0.559998C48.9724 0.559998 49.447 0.613331 49.8843 0.719997C50.3324 0.826664 50.7483 0.975997 51.1323 1.168C51.5163 1.36 51.8684 1.58933 52.1884 1.856L51.5163 3.024Z" fill="black"/>
<path d="M57.8316 0.639997H59.0476L63.6876 12H62.1516L60.8076 8.672H56.0396L54.7116 12H53.1756L57.8316 0.639997ZM60.4876 7.552L58.4396 2.304L56.3276 7.552H60.4876Z" fill="black"/>
<path d="M66.6437 3.296V12H65.2037V0.639997H66.4197L73.3637 9.52V0.655997H74.8037V12H73.4917L66.6437 3.296Z" fill="black"/>
<path d="M77.5162 12V0.639997H81.4522C82.6682 0.639997 83.6815 0.895997 84.4922 1.408C85.3136 1.90933 85.9269 2.592 86.3322 3.456C86.7376 4.30933 86.9402 5.25866 86.9402 6.304C86.9402 7.456 86.7162 8.45866 86.2682 9.312C85.8202 10.1653 85.1856 10.8267 84.3642 11.296C83.5429 11.7653 82.5722 12 81.4522 12H77.5162ZM85.4842 6.304C85.4842 5.45066 85.3242 4.69333 85.0042 4.032C84.6949 3.37066 84.2416 2.85333 83.6442 2.48C83.0469 2.10666 82.3162 1.92 81.4522 1.92H78.9562V10.72H81.4522C82.3269 10.72 83.0629 10.528 83.6602 10.144C84.2576 9.74933 84.7109 9.22133 85.0202 8.56C85.3296 7.888 85.4842 7.136 85.4842 6.304Z" fill="black"/>
<path d="M88.9693 12V0.639997H90.4093V10.72H96.7453V12H88.9693Z" fill="black"/>
<path d="M106.025 10.72V12H98.3131V0.639997H105.881V1.92H99.7531V5.6H105.081V6.8H99.7531V10.72H106.025Z" fill="black"/>
<path d="M108.001 12V0.639997H112.865C113.366 0.639997 113.825 0.746664 114.241 0.959997C114.657 1.16266 115.019 1.44 115.329 1.792C115.638 2.13333 115.878 2.52266 116.049 2.96C116.219 3.38666 116.305 3.824 116.305 4.272C116.305 4.79466 116.203 5.29067 116.001 5.76C115.809 6.22933 115.531 6.62933 115.169 6.96C114.817 7.29066 114.401 7.52 113.921 7.648L116.673 12H115.041L112.449 7.92H109.441V12H108.001ZM109.441 6.64H112.881C113.275 6.64 113.617 6.53333 113.905 6.32C114.203 6.096 114.433 5.80266 114.593 5.44C114.763 5.07733 114.849 4.688 114.849 4.272C114.849 3.84533 114.753 3.456 114.561 3.104C114.369 2.74133 114.118 2.45333 113.809 2.24C113.499 2.02666 113.158 1.92 112.785 1.92H109.441V6.64Z" fill="black"/>
</g>
<defs>
<filter id="filter0_d_245507_284" x="0.271973" y="0.559998" width="120.401" height="19.552" filterUnits="userSpaceOnUse" color-interpolation-filters="sRGB">
<feFlood flood-opacity="0" result="BackgroundImageFix"/>
<feColorMatrix in="SourceAlpha" type="matrix" values="0 0 0 0 0 0 0 0 0 0 0 0 0 0 0 0 0 0 127 0" result="hardAlpha"/>
<feOffset dy="4"/>
<feGaussianBlur stdDeviation="2"/>
<feComposite in2="hardAlpha" operator="out"/>
<feColorMatrix type="matrix" values="0 0 0 0 0 0 0 0 0 0 0 0 0 0 0 0 0 0 0.25 0"/>
<feBlend mode="normal" in2="BackgroundImageFix" result="effect1_dropShadow_245507_284"/>
<feBlend mode="normal" in="SourceGraphic" in2="effect1_dropShadow_245507_284" result="shape"/>
</filter>
</defs>
</svg>
