<svg width="21" height="20" viewBox="0 0 21 20" fill="none" xmlns="http://www.w3.org/2000/svg">
<path fill-rule="evenodd" clip-rule="evenodd" d="M5.92625 0.0596181C7.0015 0.0108396 7.34433 0 10.0833 0C12.8223 0 13.1652 0.0117429 14.2395 0.0596181C15.3138 0.107493 16.0472 0.276411 16.6888 0.521207C17.3607 0.771422 17.9703 1.16255 18.4745 1.6684C18.9878 2.16432 19.3838 2.76411 19.6368 3.42714C19.8862 4.05945 20.0567 4.78209 20.1062 5.83896C20.1557 6.90034 20.1667 7.23818 20.1667 9.93635C20.1667 12.6354 20.1547 12.9733 20.1062 14.0328C20.0576 15.0897 19.8862 15.8123 19.6368 16.4447C19.3838 17.1078 18.9872 17.7086 18.4745 18.2052C17.9703 18.711 17.3607 19.1013 16.6888 19.3506C16.0472 19.5963 15.3138 19.7643 14.2413 19.8131C13.1652 19.8619 12.8223 19.8727 10.0833 19.8727C7.34433 19.8727 7.0015 19.8609 5.92625 19.8131C4.85375 19.7652 4.12042 19.5963 3.47875 19.3506C2.80584 19.1012 2.19617 18.7104 1.69217 18.2052C1.17918 17.709 0.782205 17.1085 0.528917 16.4456C0.2805 15.8132 0.11 15.0906 0.0605 14.0337C0.011 12.9724 0 12.6345 0 9.93635C0 7.23727 0.0119167 6.89944 0.0605 5.84076C0.109083 4.78209 0.2805 4.05945 0.528917 3.42714C0.782579 2.76418 1.17986 2.1637 1.69308 1.6675C2.19637 1.1621 2.80543 0.770919 3.47783 0.521207C4.1195 0.276411 4.85283 0.108396 5.92533 0.0596181H5.92625ZM14.1579 1.84816C13.0946 1.80029 12.7756 1.79035 10.0833 1.79035C7.39108 1.79035 7.07208 1.80029 6.00875 1.84816C5.02517 1.89242 4.49167 2.05411 4.136 2.19051C3.66575 2.37117 3.32933 2.58526 2.97642 2.93303C2.64187 3.25375 2.38442 3.64418 2.22292 4.07571C2.0845 4.42619 1.92042 4.95191 1.8755 5.92116C1.82692 6.96899 1.81683 7.28334 1.81683 9.93635C1.81683 12.5894 1.82692 12.9037 1.8755 13.9515C1.92042 14.9208 2.0845 15.4465 2.22292 15.797C2.38425 16.2279 2.64183 16.619 2.97642 16.9397C3.30183 17.2694 3.69875 17.5232 4.136 17.6822C4.49167 17.8186 5.02517 17.9803 6.00875 18.0245C7.07208 18.0724 7.39017 18.0823 10.0833 18.0823C12.7765 18.0823 13.0946 18.0724 14.1579 18.0245C15.1415 17.9803 15.675 17.8186 16.0307 17.6822C16.5009 17.5015 16.8373 17.2874 17.1902 16.9397C17.5248 16.619 17.7824 16.2279 17.9437 15.797C18.0822 15.4465 18.2462 14.9208 18.2912 13.9515C18.3397 12.9037 18.3498 12.5894 18.3498 9.93635C18.3498 7.28334 18.3397 6.96899 18.2912 5.92116C18.2462 4.95191 18.0822 4.42619 17.9437 4.07571C17.7604 3.61231 17.5432 3.2808 17.1902 2.93303C16.8648 2.60339 16.4686 2.34968 16.0307 2.19051C15.675 2.05411 15.1415 1.89242 14.1579 1.84816V1.84816ZM8.79542 12.9994C9.51469 13.2945 10.3156 13.3343 11.0614 13.1121C11.8071 12.8899 12.4514 12.4195 12.8843 11.7811C13.3172 11.1428 13.5117 10.3761 13.4347 9.61215C13.3577 8.84817 13.0139 8.13423 12.4621 7.59227C12.1103 7.24583 11.6849 6.98056 11.2166 6.81556C10.7483 6.65056 10.2487 6.58993 9.75379 6.63804C9.25885 6.68614 8.78089 6.84179 8.35432 7.09377C7.92775 7.34574 7.56318 7.68779 7.28686 8.09528C7.01054 8.50276 6.82934 8.96555 6.75631 9.45033C6.68327 9.93511 6.72022 10.4298 6.86449 10.8988C7.00877 11.3678 7.25677 11.7995 7.59066 12.1627C7.92455 12.526 8.33601 12.8117 8.79542 12.9994ZM6.4185 6.32494C6.89977 5.85068 7.47113 5.47448 8.09994 5.21781C8.72875 4.96115 9.40271 4.82904 10.0833 4.82904C10.764 4.82904 11.4379 4.96114 12.0667 5.21781C12.6955 5.47448 13.2669 5.85068 13.7482 6.32494C14.2294 6.79919 14.6112 7.36222 14.8717 7.98186C15.1321 8.60151 15.2662 9.26564 15.2662 9.93635C15.2662 10.607 15.1321 11.2712 14.8717 11.8908C14.6112 12.5105 14.2294 13.0735 13.7482 13.5478C12.7762 14.5056 11.4579 15.0437 10.0833 15.0437C8.70875 15.0437 7.39047 14.5056 6.4185 13.5478C5.44653 12.59 4.90048 11.2909 4.90048 9.93635C4.90048 8.5818 5.44653 7.28274 6.4185 6.32494V6.32494ZM16.4157 5.58965C16.5349 5.47878 16.6304 5.34547 16.6964 5.19759C16.7625 5.04971 16.7977 4.89028 16.8001 4.72873C16.8025 4.56719 16.772 4.40681 16.7104 4.2571C16.6487 4.10739 16.5572 3.97139 16.4413 3.85714C16.3254 3.7429 16.1874 3.65274 16.0354 3.592C15.8835 3.53127 15.7207 3.50119 15.5568 3.50354C15.3929 3.5059 15.2311 3.54064 15.081 3.60572C14.931 3.67079 14.7957 3.76488 14.6832 3.8824C14.4644 4.11096 14.3446 4.41456 14.3492 4.72873C14.3539 5.04291 14.4826 5.34293 14.7081 5.56512C14.9335 5.7873 15.238 5.91414 15.5568 5.91872C15.8756 5.9233 16.1837 5.80526 16.4157 5.58965V5.58965Z" fill="black"/>
</svg>
