<svg width="23" height="17" viewBox="0 0 23 17" fill="none" xmlns="http://www.w3.org/2000/svg">
<path d="M22.75 8.0591C22.75 8.00406 22.75 7.94151 22.7475 7.86895C22.7449 7.66628 22.7398 7.4386 22.7348 7.1959C22.7145 6.49782 22.6789 5.80225 22.623 5.14672C22.5469 4.24348 22.4352 3.49036 22.2828 2.9249C22.122 2.33479 21.8069 1.79659 21.3689 1.36411C20.9309 0.931625 20.3854 0.619998 19.7869 0.460377C19.0684 0.270221 17.6617 0.152625 15.6812 0.0800655C14.7393 0.0450368 13.7312 0.0225183 12.7232 0.010008C12.3703 0.00500395 12.0428 0.00250205 11.7482 0H11.0018C10.7072 0.00250205 10.3797 0.00500395 10.0268 0.010008C9.01875 0.0225183 8.01074 0.0450368 7.06875 0.0800655C5.08828 0.155127 3.6791 0.272723 2.96309 0.460377C2.36438 0.619606 1.81865 0.931101 1.3806 1.36365C0.942548 1.79619 0.627555 2.33459 0.467188 2.9249C0.312305 3.49036 0.203125 4.24348 0.126953 5.14672C0.0710938 5.80225 0.0355468 6.49782 0.0152343 7.1959C0.00761715 7.4386 0.00507809 7.66628 0.00253902 7.86895C0.00253902 7.94151 0 8.00406 0 8.0591V8.19922C0 8.25426 -3.88827e-08 8.31682 0.00253902 8.38937C0.00507809 8.59204 0.0101562 8.81973 0.0152343 9.06243C0.0355468 9.7605 0.0710938 10.4561 0.126953 11.1116C0.203125 12.0148 0.314844 12.768 0.467188 13.3334C0.792188 14.5319 1.74687 15.4777 2.96309 15.7979C3.6791 15.9881 5.08828 16.1057 7.06875 16.1783C8.01074 16.2133 9.01875 16.2358 10.0268 16.2483C10.3797 16.2533 10.7072 16.2558 11.0018 16.2583H11.7482C12.0428 16.2558 12.3703 16.2533 12.7232 16.2483C13.7312 16.2358 14.7393 16.2133 15.6812 16.1783C17.6617 16.1032 19.0709 15.9856 19.7869 15.7979C21.0031 15.4777 21.9578 14.5344 22.2828 13.3334C22.4377 12.768 22.5469 12.0148 22.623 11.1116C22.6789 10.4561 22.7145 9.7605 22.7348 9.06243C22.7424 8.81973 22.7449 8.59204 22.7475 8.38937C22.7475 8.31682 22.75 8.25426 22.75 8.19922V8.0591ZM20.9219 8.18921C20.9219 8.24175 20.9219 8.2993 20.9193 8.36686C20.9168 8.56202 20.9117 8.77719 20.9066 9.00988C20.8889 9.67543 20.8533 10.341 20.8 10.959C20.7314 11.7646 20.635 12.4252 20.5156 12.868C20.3582 13.446 19.8961 13.9039 19.3121 14.0565C18.7789 14.1966 17.4357 14.3092 15.6102 14.3768C14.6859 14.4118 13.6906 14.4343 12.6979 14.4468C12.35 14.4518 12.0275 14.4543 11.7381 14.4543H11.0119L10.0521 14.4468C9.05937 14.4343 8.0666 14.4118 7.13984 14.3768C5.31426 14.3067 3.96855 14.1966 3.43789 14.0565C2.85391 13.9014 2.3918 13.446 2.23438 12.868C2.11504 12.4252 2.01855 11.7646 1.95 10.959C1.89668 10.341 1.86367 9.67543 1.84336 9.00988C1.83574 8.77719 1.8332 8.55951 1.83066 8.36686C1.83066 8.2993 1.82812 8.23925 1.82812 8.18921V8.06911C1.82812 8.01657 1.82813 7.95902 1.83066 7.89147C1.8332 7.69631 1.83828 7.48113 1.84336 7.24844C1.86113 6.58289 1.89668 5.91735 1.95 5.29934C2.01855 4.49368 2.11504 3.83314 2.23438 3.39028C2.3918 2.8123 2.85391 2.35443 3.43789 2.2018C3.97109 2.06169 5.31426 1.9491 7.13984 1.88154C8.06406 1.84651 9.05937 1.82399 10.0521 1.81148C10.4 1.80648 10.7225 1.80398 11.0119 1.80398H11.7381L12.6979 1.81148C13.6906 1.82399 14.6834 1.84651 15.6102 1.88154C17.4357 1.9516 18.7814 2.06169 19.3121 2.2018C19.8961 2.35693 20.3582 2.8123 20.5156 3.39028C20.635 3.83314 20.7314 4.49368 20.8 5.29934C20.8533 5.91735 20.8863 6.58289 20.9066 7.24844C20.9143 7.48113 20.9168 7.69881 20.9193 7.89147C20.9193 7.95902 20.9219 8.01907 20.9219 8.06911V8.18921ZM9.11523 11.4819L15.0059 8.10414L9.11523 4.77641V11.4819Z" fill="black"/>
</svg>
